<svg width="59" height="59" viewBox="0 0 59 59" fill="none" xmlns="http://www.w3.org/2000/svg">
<path fill-rule="evenodd" clip-rule="evenodd" d="M18.2029 42.6693C26.6165 41.4401 32.4096 41.5458 40.8343 42.7123C41.4444 42.8007 42.0019 43.107 42.4039 43.5744C42.8058 44.0419 43.025 44.639 43.021 45.2555C43.021 45.8455 42.8182 46.4182 42.4519 46.8657C41.8135 47.6457 41.1594 48.4129 40.4901 49.1667H43.7364C43.9404 48.9233 44.1457 48.675 44.3534 48.423C45.0825 47.5289 45.4803 46.4104 45.4793 45.2567C45.4793 42.7676 43.6626 40.6227 41.1711 40.2786C32.5473 39.085 26.5194 38.9707 17.8477 40.238C15.3303 40.6055 13.521 42.7836 13.521 45.2899C13.521 46.4023 13.8836 47.5024 14.5707 48.3935C14.7735 48.6566 14.9739 48.9147 15.173 49.1679H18.3406C17.7179 48.4224 17.1106 47.6643 16.5189 46.8939C16.1673 46.4328 15.9777 45.8685 15.9793 45.2886C15.9793 43.9648 16.9307 42.8549 18.2029 42.6693Z" fill="white"/>
<path fill-rule="evenodd" clip-rule="evenodd" d="M29.5001 30.7292C30.4686 30.7292 31.4276 30.5384 32.3224 30.1678C33.2171 29.7972 34.0302 29.2539 34.715 28.5691C35.3998 27.8843 35.9431 27.0712 36.3137 26.1765C36.6843 25.2817 36.8751 24.3227 36.8751 23.3542C36.8751 22.3857 36.6843 21.4267 36.3137 20.5319C35.9431 19.6371 35.3998 18.8241 34.715 18.1393C34.0302 17.4544 33.2171 16.9112 32.3224 16.5406C31.4276 16.1699 30.4686 15.9792 29.5001 15.9792C27.5441 15.9792 25.6682 16.7562 24.2852 18.1393C22.9021 19.5223 22.1251 21.3982 22.1251 23.3542C22.1251 25.3101 22.9021 27.186 24.2852 28.5691C25.6682 29.9522 27.5441 30.7292 29.5001 30.7292V30.7292ZM29.5001 33.1875C32.108 33.1875 34.6092 32.1515 36.4533 30.3074C38.2974 28.4633 39.3334 25.9621 39.3334 23.3542C39.3334 20.7462 38.2974 18.2451 36.4533 16.401C34.6092 14.5569 32.108 13.5208 29.5001 13.5208C26.8921 13.5208 24.391 14.5569 22.5469 16.401C20.7028 18.2451 19.6667 20.7462 19.6667 23.3542C19.6667 25.9621 20.7028 28.4633 22.5469 30.3074C24.391 32.1515 26.8921 33.1875 29.5001 33.1875V33.1875Z" fill="white"/>
<path fill-rule="evenodd" clip-rule="evenodd" d="M29.5001 51.625C41.7192 51.625 51.6251 41.7191 51.6251 29.5C51.6251 17.2808 41.7192 7.37499 29.5001 7.37499C17.2809 7.37499 7.37508 17.2808 7.37508 29.5C7.37508 41.7191 17.2809 51.625 29.5001 51.625ZM29.5001 54.0833C43.0775 54.0833 54.0834 43.0774 54.0834 29.5C54.0834 15.9226 43.0775 4.91666 29.5001 4.91666C15.9227 4.91666 4.91675 15.9226 4.91675 29.5C4.91675 43.0774 15.9227 54.0833 29.5001 54.0833Z" fill="white"/>
</svg>
